<svg xmlns="http://www.w3.org/2000/svg" width="44" height="44" viewBox="0 0 44 44">
  <g id="Group_106690" data-name="Group 106690" transform="translate(-1537 -404)">
    <g id="Group_106689" data-name="Group 106689" transform="translate(1515 -220)">
      <path id="Path_49312" data-name="Path 49312" d="M22,0A22,22,0,1,1,0,22,22,22,0,0,1,22,0Z" transform="translate(22 624)" fill="#178dd0" fill-rule="evenodd"/>
    </g>
    <g id="tribe-tribe-logo" transform="translate(1548.95 413.95)">
      <path id="Path_49494" data-name="Path 49494" d="M.3,12.7c.1-.7.1-1.1.5-1.4.3-.3.7-.2,1.4-.1a11.548,11.548,0,0,1,1.6.2,7.491,7.491,0,0,1,1.6.4,2.523,2.523,0,0,1,1.5,1c.5.6.5,1.2.5,2.3v7.5c0,.7,0,1.1-.2,1.3a4.922,4.922,0,0,1-1.4.1H2.9c-1.2,0-1.7,0-2.2-.4-.4-.4-.5-.9-.6-2s-.2-2.4-.2-4A48.223,48.223,0,0,1,.3,12.7Z" fill="#fff"/>
      <path id="Path_49495" data-name="Path 49495" d="M19.9,12.7c-.1-.7-.1-1.1-.5-1.4-.3-.3-.7-.2-1.4-.1a11.548,11.548,0,0,0-1.6.2,7.491,7.491,0,0,0-1.6.4,2.523,2.523,0,0,0-1.5,1c-.5.6-.5,1.2-.5,2.3v7.5c0,.7,0,1.1.2,1.3s.6.2,1.3.2h2.9c1.2,0,1.7,0,2.2-.4s.5-.9.6-2,.2-2.4.2-4A32.454,32.454,0,0,0,19.9,12.7Z" fill="#fff"/>
      <path id="Path_49496" data-name="Path 49496" d="M.3,3.2C.3,1.9.3,1.3.7.9S1.7.4,3,.3C4.8.2,7.4,0,10.2,0s5.4.2,7.3.3c1.2.1,1.9.1,2.3.6.4.4.4,1.1.4,2.3v.6c0,1.3,0,1.9-.4,2.3s-1,.5-2.2.6a72.569,72.569,0,0,1-7.4.3,71.763,71.763,0,0,1-7.3-.3C1.7,6.6,1.1,6.6.7,6.2.3,5.7.3,5.1.3,3.8Z" fill="#fff"/>
    </g>
  </g>
</svg>
