<svg xmlns="http://www.w3.org/2000/svg" xmlns:xlink="http://www.w3.org/1999/xlink" width="619.459" height="523.122" viewBox="0 0 619.459 523.122">
  <defs>
    <clipPath id="clip-path">
      <path id="Path_112999" data-name="Path 112999" d="M2.1,0H131.361a7.775,7.775,0,0,1,7.775,7.775L115.811,137.036c-.912,4.311-3.481,7.775-7.775,7.775H-21.225A7.775,7.775,0,0,1-29,137.036L-5.675,7.775C-4.87,3.629-2.194,0,2.1,0Z" transform="translate(29)" fill="#fff"/>
    </clipPath>
    <linearGradient id="linear-gradient" x1="0.5" x2="0.5" y2="1" gradientUnits="objectBoundingBox">
      <stop offset="0" stop-color="#c7ddff"/>
      <stop offset="1" stop-color="#005f79" stop-opacity="0"/>
    </linearGradient>
    <clipPath id="clip-path-2">
      <path id="Path_49473" data-name="Path 49473" d="M30.825,0A30.825,30.825,0,1,1,0,30.825,30.824,30.824,0,0,1,30.825,0Z" fill="#345d9d" clip-rule="evenodd"/>
    </clipPath>
    <linearGradient id="linear-gradient-2" x1="0.5" x2="0.5" y2="1" gradientUnits="objectBoundingBox">
      <stop offset="0" stop-color="#ff060a"/>
      <stop offset="1" stop-color="#005f79" stop-opacity="0"/>
    </linearGradient>
    <linearGradient id="linear-gradient-3" x1="0.5" x2="0.5" y2="1" gradientUnits="objectBoundingBox">
      <stop offset="0" stop-color="#f7931a"/>
      <stop offset="1" stop-color="#005f79" stop-opacity="0"/>
    </linearGradient>
    <clipPath id="clip-path-5">
      <path id="Path_112998" data-name="Path 112998" d="M25.239,0H250.67a13.56,13.56,0,0,1,13.56,13.56L223.55,238.99c-1.591,7.518-6.071,13.56-13.56,13.56H-15.44A13.56,13.56,0,0,1-29,238.99L11.679,13.56C13.083,6.33,17.75,0,25.239,0Z" transform="translate(29)" fill="#fff"/>
    </clipPath>
    <linearGradient id="linear-gradient-4" x1="0.5" x2="0.5" y2="1" gradientUnits="objectBoundingBox">
      <stop offset="0" stop-color="#00bef2"/>
      <stop offset="1" stop-color="#005f79" stop-opacity="0"/>
    </linearGradient>
    <clipPath id="clip-path-6">
      <rect id="Rectangle_59636" data-name="Rectangle 59636" width="55.54" height="30.604" fill="none"/>
    </clipPath>
    <clipPath id="clip-path-7">
      <rect id="Rectangle_59637" data-name="Rectangle 59637" width="55.54" height="39.62" fill="none"/>
    </clipPath>
    <linearGradient id="linear-gradient-5" x1="0.5" x2="0.5" y2="1" gradientUnits="objectBoundingBox">
      <stop offset="0" stop-color="#7044cf"/>
      <stop offset="1" stop-color="#005f79" stop-opacity="0"/>
    </linearGradient>
    <linearGradient id="linear-gradient-6" x1="0.5" x2="0.5" y2="1" gradientUnits="objectBoundingBox">
      <stop offset="0" stop-color="#f0b90b"/>
      <stop offset="1" stop-color="#005f79" stop-opacity="0"/>
    </linearGradient>
    <clipPath id="clip-path-11">
      <rect id="Rectangle_61114" data-name="Rectangle 61114" width="79.106" height="79.106" transform="translate(0 0)" fill="#fff"/>
    </clipPath>
    <linearGradient id="linear-gradient-7" x1="0.5" x2="0.5" y2="1" gradientUnits="objectBoundingBox">
      <stop offset="0" stop-color="#627eea"/>
      <stop offset="1" stop-color="#005f79" stop-opacity="0"/>
    </linearGradient>
    <linearGradient id="linear-gradient-8" x1="0.5" x2="0.5" y2="1" gradientUnits="objectBoundingBox">
      <stop offset="0" stop-color="#ff007a"/>
      <stop offset="1" stop-color="#005f79" stop-opacity="0"/>
    </linearGradient>
    <clipPath id="clip-path-13">
      <rect id="Rectangle_61115" data-name="Rectangle 61115" width="75.702" height="75.702" transform="translate(0 0)" fill="#fff" stroke="#ff007a" stroke-width="1"/>
    </clipPath>
  </defs>
  <g id="Group_175058" data-name="Group 175058" transform="translate(-1003.379 -184)">
    <g id="Group_174382" data-name="Group 174382" transform="translate(1362.073 184)">
      <g id="Group_173819" data-name="Group 173819" transform="translate(0)">
        <path id="Path_112991" data-name="Path 112991" d="M2.1,0h129.26a7.775,7.775,0,0,1,7.775,7.775L115.81,137.035c-.912,4.311-3.481,7.775-7.775,7.775H-21.225A7.775,7.775,0,0,1-29,137.035L-5.675,7.775C-4.87,3.629-2.194,0,2.1,0Z" transform="translate(29 0)" fill="rgba(9,27,49,0.6)"/>
        <g id="Mask_Group_171720" data-name="Mask Group 171720" transform="translate(0.091)" opacity="0.3" clip-path="url(#clip-path)">
          <path id="Path_113082" data-name="Path 113082" d="M34.665,0A34.665,34.665,0,1,1,0,34.665,34.665,34.665,0,0,1,34.665,0Z" transform="translate(115.572 -14.333)" fill="#9fc5ff" opacity="0.6"/>
          <circle id="Ellipse_9832" data-name="Ellipse 9832" cx="39.802" cy="39.802" r="39.802" transform="translate(-13.274 80.672)" fill="#9fc5ff" opacity="0.6"/>
        </g>
      </g>
      <path id="Path_112991-2" data-name="Path 112991" d="M2.1.934a5.916,5.916,0,0,0-4.507,2.03,10.359,10.359,0,0,0-2.35,4.983L-28.065,137.116a6.849,6.849,0,0,0,6.84,6.76h129.26a5.858,5.858,0,0,0,4.468-1.969,10.72,10.72,0,0,0,2.39-5.051L138.2,7.694a6.849,6.849,0,0,0-6.84-6.76H2.1M2.1,0h129.26a7.775,7.775,0,0,1,7.775,7.775l-23.325,129.26c-.912,4.311-3.481,7.775-7.775,7.775H-21.225A7.775,7.775,0,0,1-29,137.035L-5.675,7.775C-4.87,3.629-2.194,0,2.1,0Z" transform="translate(29)" fill="url(#linear-gradient)"/>
      <g id="Path_49312" data-name="Path 49312" transform="translate(53.244 42.034)" fill="#345d9d" fill-rule="evenodd">
        <path d="M30.825,0A30.825,30.825,0,1,1,0,30.825,30.824,30.824,0,0,1,30.825,0Z" stroke="none"/>
        <path d="M 30.82528686523438 0 C 13.79974365234375 0 0 13.79974365234375 0 30.82528686523438 C 0 47.85081481933594 13.79974365234375 61.65057373046875 30.82528686523438 61.65057373046875 C 47.850830078125 61.65057373046875 61.65057373046875 47.85081481933594 61.65057373046875 30.82528686523438 C 61.65057373046875 13.79974365234375 47.850830078125 0 30.82528686523438 0 M 30.82528686523438 -6 C 51.13081359863281 -6 67.65057373046875 10.51976013183594 67.65057373046875 30.82528686523438 C 67.65057373046875 51.13081359863281 51.13081359863281 67.65057373046875 30.82528686523438 67.65057373046875 C 10.51976013183594 67.65057373046875 -6 51.13081359863281 -6 30.82528686523438 C -6 10.51976013183594 10.51976013183594 -6 30.82528686523438 -6 Z" stroke="none" fill="rgba(52,93,157,0.5)"/>
      </g>
      <g id="Mask_Group_284" data-name="Mask Group 284" transform="translate(53.244 42.034)" clip-path="url(#clip-path-2)">
        <g id="litecoin-ltc-logo_1_" data-name="litecoin-ltc-logo (1)" transform="translate(10.178 10.177)">
          <path id="Path_50077" data-name="Path 50077" d="M18.413,0A18.413,18.413,0,1,1,0,18.413,18.413,18.413,0,0,1,18.413,0Z" transform="translate(2.235 2.235)" fill="#fff"/>
          <path id="Path_49471" data-name="Path 49471" d="M20.648,0A20.648,20.648,0,1,0,41.3,20.648h0A20.588,20.588,0,0,0,20.768,0ZM21,21.348,18.848,28.6h11.5a.58.58,0,0,1,.6.56v.19l-1,3.45a.745.745,0,0,1-.75.55H11.6L14.548,23.3l-3.3,1L12,22l3.3-1,4.15-14.1a.755.755,0,0,1,.75-.55h4.45a.58.58,0,0,1,.6.56V7.1L21.748,19l3.3-1-.7,2.4Z" fill="#345d9d"/>
        </g>
      </g>
    </g>
    <g id="Group_173818" data-name="Group 173818" transform="translate(1189.22 184)">
      <path id="Path_112991-3" data-name="Path 112991" d="M2.1,0h129.26a7.775,7.775,0,0,1,7.775,7.775L115.81,137.035c-.912,4.311-3.481,7.775-7.775,7.775H-21.225A7.775,7.775,0,0,1-29,137.035L-5.675,7.775C-4.87,3.629-2.194,0,2.1,0Z" transform="translate(29 0)" fill="rgba(9,27,49,0.6)"/>
      <g id="Mask_Group_171720-2" data-name="Mask Group 171720" transform="translate(0.091)" opacity="0.3" clip-path="url(#clip-path)">
        <circle id="Ellipse_9831" data-name="Ellipse 9831" cx="34.665" cy="34.665" r="34.665" transform="translate(110.462 -14.333)" fill="#ff5d5f"/>
        <circle id="Ellipse_9832-2" data-name="Ellipse 9832" cx="39.802" cy="39.802" r="39.802" transform="translate(-18.385 80.672)" fill="#ff5d5f"/>
      </g>
    </g>
    <path id="Path_112991-4" data-name="Path 112991" d="M2.1.934a5.916,5.916,0,0,0-4.507,2.03,10.359,10.359,0,0,0-2.35,4.983L-28.065,137.116a6.849,6.849,0,0,0,6.84,6.76h129.26a5.858,5.858,0,0,0,4.468-1.969,10.72,10.72,0,0,0,2.39-5.051L138.2,7.694a6.849,6.849,0,0,0-6.84-6.76H2.1M2.1,0h129.26a7.775,7.775,0,0,1,7.775,7.775l-23.325,129.26c-.912,4.311-3.481,7.775-7.775,7.775H-21.225A7.775,7.775,0,0,1-29,137.035L-5.675,7.775C-4.87,3.629-2.194,0,2.1,0Z" transform="translate(1218.265 184)" fill="url(#linear-gradient-2)"/>
    <path id="Path_112991-5" data-name="Path 112991" d="M2.1,0h129.26a7.775,7.775,0,0,1,7.775,7.775L115.81,137.035c-.912,4.311-3.481,7.775-7.775,7.775H-21.225A7.775,7.775,0,0,1-29,137.035L-5.675,7.775C-4.87,3.629-2.194,0,2.1,0Z" transform="translate(1032.379 357.743)" fill="rgba(9,27,49,0.6)"/>
    <g id="Mask_Group_171720-3" data-name="Mask Group 171720" transform="translate(1003.38 357.743)" opacity="0.3" clip-path="url(#clip-path)">
      <circle id="Ellipse_9831-2" data-name="Ellipse 9831" cx="34.665" cy="34.665" r="34.665" transform="translate(110.462 -14.333)" fill="#f7931a" opacity="0.7"/>
      <circle id="Ellipse_9832-3" data-name="Ellipse 9832" cx="39.802" cy="39.802" r="39.802" transform="translate(-18.385 80.672)" fill="#f7931a" opacity="0.7"/>
    </g>
    <path id="Path_112991-6" data-name="Path 112991" d="M2.1.934a5.916,5.916,0,0,0-4.507,2.03,10.359,10.359,0,0,0-2.35,4.983L-28.065,137.116a6.849,6.849,0,0,0,6.84,6.76h129.26a5.858,5.858,0,0,0,4.468-1.969,10.72,10.72,0,0,0,2.39-5.051L138.2,7.694a6.849,6.849,0,0,0-6.84-6.76H2.1M2.1,0h129.26a7.775,7.775,0,0,1,7.775,7.775l-23.325,129.26c-.912,4.311-3.481,7.775-7.775,7.775H-21.225A7.775,7.775,0,0,1-29,137.035L-5.675,7.775C-4.87,3.629-2.194,0,2.1,0Z" transform="translate(1032.379 357.743)" fill="url(#linear-gradient-3)"/>
    <path id="Path_112990" data-name="Path 112990" d="M25.239,0H250.67a13.56,13.56,0,0,1,13.56,13.56L223.55,238.99c-1.591,7.518-6.071,13.56-13.56,13.56H-15.44A13.56,13.56,0,0,1-29,238.99L11.679,13.56C13.083,6.33,17.75,0,25.239,0Z" transform="translate(1197.715 296.093)" fill="rgba(9,27,49,0.6)"/>
    <g id="Mask_Group_171719" data-name="Mask Group 171719" transform="translate(1168.715 296.091)" opacity="0.5" clip-path="url(#clip-path-5)">
      <circle id="Ellipse_9829" data-name="Ellipse 9829" cx="52.31" cy="52.31" r="52.31" transform="translate(208.935 -24.996)" fill="#00bef2" opacity="0.7"/>
      <circle id="Ellipse_9830" data-name="Ellipse 9830" cx="52.31" cy="52.31" r="52.31" transform="translate(-32.062 174.901)" fill="#00bef2" opacity="0.7"/>
    </g>
    <path id="Path_113000" data-name="Path 113000" d="M25.239.934a10.986,10.986,0,0,0-4.685,1.014A11.766,11.766,0,0,0,16.866,4.7,18.763,18.763,0,0,0,12.6,13.726L-28.066,239.073a12.541,12.541,0,0,0,3.7,8.845,12.543,12.543,0,0,0,8.928,3.7H209.99a10.886,10.886,0,0,0,8.3-3.659,19.389,19.389,0,0,0,4.338-9.146L263.3,13.477A12.626,12.626,0,0,0,250.67.934H25.239m0-.934H250.67a13.56,13.56,0,0,1,13.56,13.56L223.55,238.99c-1.591,7.518-6.071,13.56-13.56,13.56H-15.44A13.56,13.56,0,0,1-29,238.99L11.679,13.56C13.083,6.33,17.75,0,25.239,0Z" transform="translate(1197.715 296.091)" fill="url(#linear-gradient-4)"/>
    <g id="Path_49474" data-name="Path 49474" transform="translate(1242.508 226.034)" fill="#ff060a" fill-rule="evenodd">
      <path d="M30.825,0A30.825,30.825,0,1,1,0,30.825,30.824,30.824,0,0,1,30.825,0Z" stroke="none"/>
      <path d="M 30.82528686523438 0 C 13.79974365234375 0 0 13.79974365234375 0 30.82528686523438 C 0 47.85081481933594 13.79974365234375 61.65057373046875 30.82528686523438 61.65057373046875 C 47.850830078125 61.65057373046875 61.65057373046875 47.85081481933594 61.65057373046875 30.82528686523438 C 61.65057373046875 13.79974365234375 47.850830078125 0 30.82528686523438 0 M 30.82528686523438 -6 C 51.13081359863281 -6 67.65057373046875 10.51976013183594 67.65057373046875 30.82528686523438 C 67.65057373046875 51.13081359863281 51.13081359863281 67.65057373046875 30.82528686523438 67.65057373046875 C 10.51976013183594 67.65057373046875 -6 51.13081359863281 -6 30.82528686523438 C -6 10.51976013183594 10.51976013183594 -6 30.82528686523438 -6 Z" stroke="none" fill="rgba(255,6,10,0.5)"/>
    </g>
    <g id="tron" transform="translate(1257.304 242.26)">
      <path id="Path_49472" data-name="Path 49472" d="M33.993,10.425c-1.622-1.5-3.866-3.785-5.694-5.407l-.108-.076a2.066,2.066,0,0,0-.6-.335h0C23.184,3.785,2.675-.049,2.275,0a.757.757,0,0,0-.314.119L1.858.2a1.206,1.206,0,0,0-.281.454L1.55.724v.443C3.859,7.6,12.975,28.657,14.77,33.6c.108.335.314.973.7,1.006h.087c.205,0,1.081-1.157,1.081-1.157s15.659-18.99,17.243-21.012a5.115,5.115,0,0,0,.541-.8A1.3,1.3,0,0,0,33.993,10.425ZM20.653,12.636l6.683-5.542,3.92,3.612Zm-2.6-.362L6.552,2.844,25.168,6.277ZM19.1,14.745l11.777-1.9L17.409,29.068ZM4.989,3.785,17.1,14.058,15.344,29.079Z" transform="translate(-1.55 0.001)" fill="#fff"/>
    </g>
    <path id="Path_111670" data-name="Path 111670" d="M153.207,0a64.4,64.4,0,1,1-64.4,64.4A64.4,64.4,0,0,1,153.207,0" transform="translate(1162.111 357.743)" fill="#00515e"/>
    <path id="Path_111671" data-name="Path 111671" d="M217.488,214.724h0a11.741,11.741,0,0,1-11.747-11.745V171.652a11.747,11.747,0,0,1,23.494,0v31.327a11.709,11.709,0,0,1-11.747,11.746" transform="translate(1083.13 249.741)" fill="#00bef2"/>
    <g id="Group_171592" data-name="Group 171592" transform="translate(1288.871 421.084)" opacity="0.1">
      <g id="Group_171591" data-name="Group 171591">
        <g id="Group_171590" data-name="Group 171590" clip-path="url(#clip-path-6)">
          <path id="Path_111672" data-name="Path 111672" d="M234.8,195.194c-1.082.1-2.218.206-3.3.206-3.194.1-6.389,0-9.635-.052-5.358-.052-10.768-.155-16.126-.206v30.6A11.742,11.742,0,0,1,217.488,214h2.988c.309,0,.618.052.876.052H245.67a15.6,15.6,0,0,0,15.611-15.611v-2.267h-22.36a11.243,11.243,0,0,1-4.122-.979" transform="translate(-205.741 -195.142)"/>
        </g>
      </g>
    </g>
    <path id="Path_111673" data-name="Path 111673" d="M217.488,216.785h11.695V201.174H205.74v27.358a11.807,11.807,0,0,1,11.747-11.747" transform="translate(1083.13 221.868)" fill="#fff"/>
    <path id="Path_111674" data-name="Path 111674" d="M239.079,116.464a9.738,9.738,0,1,1,0-19.475h17.527l4.833-2.267c0-8.658-.194-15.611-8.8-15.611H221.51A15.6,15.6,0,0,0,205.9,94.722v24.009a15.6,15.6,0,0,0,15.61,15.615h24.319a15.6,15.6,0,0,0,15.611-15.611v-2.267Z" transform="translate(1083.024 304.31)" fill="#00bef2"/>
    <g id="Group_171595" data-name="Group 171595" transform="translate(1288.922 384.453)" opacity="0.1">
      <g id="Group_171594" data-name="Group 171594">
        <g id="Group_171593" data-name="Group 171593" clip-path="url(#clip-path-7)">
          <path id="Path_111675" data-name="Path 111675" d="M229.341,109.9h0a9.763,9.763,0,0,1,9.738-9.738h17.527l4.833-2.267c0-8.658-.194-15.611-8.8-15.611H221.51A15.6,15.6,0,0,0,205.9,97.9V121.9s5.648-12.643,23.442-12" transform="translate(-205.899 -82.286)"/>
        </g>
      </g>
    </g>
    <path id="Path_111676" data-name="Path 111676" d="M229.341,106.726h0a9.763,9.763,0,0,1,9.738-9.732h17.527l4.833-2.267c0-8.658-.194-15.611-8.8-15.611H221.51A15.6,15.6,0,0,0,205.9,94.723v24.009s5.648-12.643,23.442-12" transform="translate(1083.024 304.309)" fill="#fff"/>
    <path id="Path_111677" data-name="Path 111677" d="M349.042,68.381,363.425,80.1a1.331,1.331,0,0,1,.246.25,1.5,1.5,0,0,1-.283,2.093L349.264,93.251a1.5,1.5,0,0,1-2.407-1.288l-.267-22.385a1.5,1.5,0,0,1,2.451-1.2" transform="translate(987.998 311.791)" fill="#fff"/>
    <path id="Path_111678" data-name="Path 111678" d="M159.693,184.226l-.038-3.188a1.5,1.5,0,0,0-2.407-1.288l-14.125,10.805a1.5,1.5,0,0,0-.282,2.092,1.321,1.321,0,0,0,.245.25l14.383,11.722a1.5,1.5,0,0,0,2.45-1.195l-.016-1.319H203.4a15.6,15.6,0,0,0,15.61-15.61v-2.267Z" transform="translate(1125.819 236.55)" fill="#fff"/>
    <g id="Path_49323" data-name="Path 49323" transform="translate(1056.622 399.777)" fill="#f7931a" fill-rule="evenodd">
      <path d="M30.825,0A30.825,30.825,0,1,1,0,30.825,30.824,30.824,0,0,1,30.825,0Z" stroke="none"/>
      <path d="M 30.82528686523438 0 C 13.79974365234375 0 0 13.79974365234375 0 30.82528686523438 C 0 47.85081481933594 13.79974365234375 61.65057373046875 30.82528686523438 61.65057373046875 C 47.850830078125 61.65057373046875 61.65057373046875 47.85081481933594 61.65057373046875 30.82528686523438 C 61.65057373046875 13.79974365234375 47.850830078125 0 30.82528686523438 0 M 30.82528686523438 -6 C 51.13081359863281 -6 67.65057373046875 10.51976013183594 67.65057373046875 30.82528686523438 C 67.65057373046875 51.13081359863281 51.13081359863281 67.65057373046875 30.82528686523438 67.65057373046875 C 10.51976013183594 67.65057373046875 -6 51.13081359863281 -6 30.82528686523438 C -6 10.51976013183594 10.51976013183594 -6 30.82528686523438 -6 Z" stroke="none" fill="rgba(247,147,26,0.5)"/>
    </g>
    <path id="Path_49324" data-name="Path 49324" d="M1024.376,728.173c.6-4.031-2.466-6.2-6.663-7.643l1.361-5.461-3.324-.828-1.326,5.317c-.874-.218-1.771-.423-2.663-.627l1.335-5.352-3.322-.828-1.362,5.458c-.723-.164-1.433-.327-2.123-.5l0-.017-4.584-1.145-.884,3.55s2.466.565,2.414.6a1.769,1.769,0,0,1,1.549,1.933l-1.551,6.221a2.667,2.667,0,0,1,.345.111l-.351-.087-2.174,8.714a1.209,1.209,0,0,1-1.523.789c.033.048-2.416-.6-2.416-.6l-1.65,3.8,4.326,1.078c.8.2,1.593.413,2.37.612l-1.375,5.523,3.32.828,1.362-5.464c.907.246,1.787.473,2.649.688l-1.358,5.439,3.324.828,1.375-5.513c5.668,1.073,9.93.64,11.724-4.486,1.446-4.128-.072-6.509-3.054-8.061,2.172-.5,3.808-1.929,4.244-4.88h0Zm-7.595,10.649c-1.027,4.128-7.977,1.9-10.23,1.337l1.825-7.317c2.253.562,9.478,1.676,8.4,5.98Zm1.028-10.709c-.937,3.755-6.721,1.847-8.6,1.379l1.655-6.636c1.876.468,7.919,1.341,6.943,5.257Z" transform="translate(77.033 -301.764)" fill="#fff"/>
    <g id="Group_174381" data-name="Group 174381" transform="translate(1454.36 357.716)">
      <path id="Path_113083" data-name="Path 113083" d="M2.1,0h129.26a7.775,7.775,0,0,1,7.775,7.775L115.81,137.035c-.912,4.311-3.481,7.775-7.775,7.775H-21.225A7.775,7.775,0,0,1-29,137.035L-5.675,7.775C-4.87,3.629-2.194,0,2.1,0Z" transform="translate(29 0)" fill="rgba(9,27,49,0.6)"/>
      <g id="Mask_Group_171723" data-name="Mask Group 171723" transform="translate(0.342 0.026)" opacity="0.3" clip-path="url(#clip-path)">
        <circle id="Ellipse_9836" data-name="Ellipse 9836" cx="34.665" cy="34.665" r="34.665" transform="translate(110.462 -14.333)" fill="#7044cf"/>
        <circle id="Ellipse_9837" data-name="Ellipse 9837" cx="39.802" cy="39.802" r="39.802" transform="translate(-18.385 80.672)" fill="#7044cf"/>
      </g>
      <path id="Path_112991-7" data-name="Path 112991" d="M2.1.934a5.916,5.916,0,0,0-4.507,2.03,10.359,10.359,0,0,0-2.35,4.983L-28.065,137.116a6.849,6.849,0,0,0,6.84,6.76h129.26a5.858,5.858,0,0,0,4.468-1.969,10.72,10.72,0,0,0,2.39-5.051L138.2,7.694a6.849,6.849,0,0,0-6.84-6.76H2.1M2.1,0h129.26a7.775,7.775,0,0,1,7.775,7.775l-23.325,129.26c-.912,4.311-3.481,7.775-7.775,7.775H-21.225A7.775,7.775,0,0,1-29,137.035L-5.675,7.775C-4.87,3.629-2.194,0,2.1,0Z" transform="translate(29.341 0.026)" fill="url(#linear-gradient-5)"/>
      <g id="Layer_2" data-name="Layer 2" transform="translate(53.25 41.901)">
        <g id="Flat_Color" data-name="Flat Color" transform="translate(0 0)">
          <g id="Solana_SOL_" data-name="Solana (SOL)" transform="translate(0 0)">
            <g id="Ellipse_9839" data-name="Ellipse 9839" fill="#7044cf" stroke="rgba(112,68,207,0.5)" stroke-width="6">
              <circle cx="30.824" cy="30.824" r="30.824" stroke="none"/>
              <circle cx="30.824" cy="30.824" r="33.824" fill="none"/>
            </g>
            <g id="Group_174388" data-name="Group 174388" transform="translate(16.423 19.534)">
              <path id="Path_113099" data-name="Path 113099" d="M58.931,118.257a.9.9,0,0,1,.661-.277H82.555a.484.484,0,0,1,.459.513.5.5,0,0,1-.129.315l-4.536,4.526a.944.944,0,0,1-.661.277H54.726a.469.469,0,0,1-.33-.834Z" transform="translate(-54.219 -101.035)" fill="#fff"/>
              <path id="Path_113100" data-name="Path 113100" d="M59.033,64.39a.944.944,0,0,1,.661-.28H82.657a.472.472,0,0,1,.33.8l-4.536,4.555a.944.944,0,0,1-.661.277H54.828a.488.488,0,0,1-.459-.513.5.5,0,0,1,.129-.315Z" transform="translate(-54.321 -64.11)" fill="#fff"/>
              <path id="Path_113101" data-name="Path 113101" d="M78.451,91.15a.918.918,0,0,0-.661-.28H54.828a.488.488,0,0,0-.459.513.5.5,0,0,0,.129.315l4.536,4.514a.919.919,0,0,0,.661.28H82.657a.472.472,0,0,0,.33-.8Z" transform="translate(-54.321 -82.452)" fill="#fff"/>
            </g>
          </g>
        </g>
      </g>
    </g>
    <g id="Group_174385" data-name="Group 174385" transform="translate(1198.606 562.311)">
      <g id="Group_173823" data-name="Group 173823" transform="translate(0 0)">
        <path id="Path_112991-8" data-name="Path 112991" d="M2.1,0h129.26a7.775,7.775,0,0,1,7.775,7.775L115.81,137.035c-.912,4.311-3.481,7.775-7.775,7.775H-21.225A7.775,7.775,0,0,1-29,137.035L-5.675,7.775C-4.87,3.629-2.194,0,2.1,0Z" transform="translate(29 0)" fill="rgba(9,27,49,0.6)"/>
        <g id="Mask_Group_171720-4" data-name="Mask Group 171720" transform="translate(0.091 0)" opacity="0.3" clip-path="url(#clip-path)">
          <circle id="Ellipse_9831-3" data-name="Ellipse 9831" cx="34.665" cy="34.665" r="34.665" transform="translate(110.462 -14.333)" fill="#f0b90b" opacity="0.7"/>
          <circle id="Ellipse_9832-4" data-name="Ellipse 9832" cx="39.802" cy="39.802" r="39.802" transform="translate(-25.368 89.401)" fill="#f0b90b" opacity="0.7"/>
        </g>
      </g>
      <path id="Path_112991-9" data-name="Path 112991" d="M2.1.934a5.916,5.916,0,0,0-4.507,2.03,10.359,10.359,0,0,0-2.35,4.983L-28.065,137.116a6.849,6.849,0,0,0,6.84,6.76h129.26a5.858,5.858,0,0,0,4.468-1.969,10.72,10.72,0,0,0,2.39-5.051L138.2,7.694a6.849,6.849,0,0,0-6.84-6.76H2.1M2.1,0h129.26a7.775,7.775,0,0,1,7.775,7.775l-23.325,129.26c-.912,4.311-3.481,7.775-7.775,7.775H-21.225A7.775,7.775,0,0,1-29,137.035L-5.675,7.775C-4.87,3.629-2.194,0,2.1,0Z" transform="translate(29 0)" fill="url(#linear-gradient-6)"/>
      <g id="Group_174373" data-name="Group 174373" transform="translate(53.244 42.035)">
        <g id="Path_49312-2" data-name="Path 49312" fill="#f0b90b" fill-rule="evenodd">
          <path d="M30.825,0A30.825,30.825,0,1,1,0,30.825,30.824,30.824,0,0,1,30.825,0Z" stroke="none"/>
          <path d="M 30.82528686523438 0 C 13.79974365234375 0 0 13.79974365234375 0 30.82528686523438 C 0 47.85081481933594 13.79974365234375 61.65057373046875 30.82528686523438 61.65057373046875 C 47.850830078125 61.65057373046875 61.65057373046875 47.85081481933594 61.65057373046875 30.82528686523438 C 61.65057373046875 13.79974365234375 47.850830078125 0 30.82528686523438 0 M 30.82528686523438 -6 C 51.13081359863281 -6 67.65057373046875 10.51976013183594 67.65057373046875 30.82528686523438 C 67.65057373046875 51.13081359863281 51.13081359863281 67.65057373046875 30.82528686523438 67.65057373046875 C 10.51976013183594 67.65057373046875 -6 51.13081359863281 -6 30.82528686523438 C -6 10.51976013183594 10.51976013183594 -6 30.82528686523438 -6 Z" stroke="none" fill="rgba(240,185,11,0.5)"/>
        </g>
        <g id="Group_106031" data-name="Group 106031" transform="translate(14.457 12.074)">
          <path id="Path_49313" data-name="Path 49313" d="M526.075,735.935l.019,7.023,5.967,3.511v4.112l-9.46-5.548V733.881l3.473,2.054Zm0-7.023V733l-3.475-2.056v-4.092l3.475-2.056,3.492,2.056-3.492,2.056Zm8.479-2.056,3.476-2.056,3.492,2.056-3.492,2.056-3.476-2.056Z" transform="translate(-522.6 -717.78)" fill="#fff"/>
          <path id="Path_49314" data-name="Path 49314" d="M803.9,741.5V737.39l3.475,2.056v4.093L803.9,741.5Zm5.968,6.44L813.343,750l3.492-2.056v4.092l-3.492,2.056-3.475-2.056v-4.092Zm11.952-21.086,3.475-2.056,3.492,2.056v4.092L825.295,733v-4.092l-3.475-2.056Zm3.475,16.1.019-7.023,3.475-2.056v11.152l-9.46,5.548v-4.112l5.965-3.51Z" transform="translate(-797.914 -717.78)" fill="#fff"/>
          <path id="Path_49315" data-name="Path 49315" d="M1532.275,1320.512l-3.475,2.037v-4.092l3.475-2.056Z" transform="translate(-1507.387 -1296.789)" fill="#fff"/>
          <path id="Path_49316" data-name="Path 49316" d="M822.8,407.488l.019,4.112-5.984,3.512v7.04l-3.475,2.037-3.475-2.037v-7.04L803.9,411.6v-4.112l3.49-2.056,5.948,3.529,5.984-3.529,3.492,2.056Zm-18.9-7.021,9.443-5.567,9.46,5.567-3.475,2.056-5.984-3.529-5.968,3.529-3.475-2.056Z" transform="translate(-797.914 -394.9)" fill="#fff"/>
        </g>
      </g>
    </g>
    <g id="Group_174384" data-name="Group 174384" transform="translate(1374.941 530.558)">
      <g id="Group_173828" data-name="Group 173828" transform="translate(0 0)">
        <g id="Group_173824" data-name="Group 173824" transform="translate(0 0)">
          <path id="Path_112991-10" data-name="Path 112991" d="M2.1,0h129.26a7.775,7.775,0,0,1,7.775,7.775L115.81,137.035c-.912,4.311-3.481,7.775-7.775,7.775H-21.225A7.775,7.775,0,0,1-29,137.035L-5.675,7.775C-4.87,3.629-2.194,0,2.1,0Z" transform="translate(29 0)" fill="rgba(9,27,49,0.6)"/>
          <g id="Mask_Group_171720-5" data-name="Mask Group 171720" transform="translate(0.873)" opacity="0.3" clip-path="url(#clip-path)">
            <circle id="Ellipse_9831-4" data-name="Ellipse 9831" cx="34.665" cy="34.665" r="34.665" transform="translate(109.589 -14.333)" fill="#627eea"/>
            <circle id="Ellipse_9832-5" data-name="Ellipse 9832" cx="39.802" cy="39.802" r="39.802" transform="translate(-19.258 80.672)" fill="#627eea"/>
          </g>
        </g>
        <g id="Group_174386" data-name="Group 174386" transform="translate(44.501 32.299)" clip-path="url(#clip-path-11)">
          <g id="Path_113087" data-name="Path 113087" transform="translate(8.729 8.729)" fill="#627eea">
            <path d="M30.824,61.647a30.9,30.9,0,0,0,30.236-24.8,30.354,30.354,0,0,0,.587-6.019A30.824,30.824,0,1,0,30.824,61.647Z" stroke="none"/>
            <path d="M 30.82361221313477 61.6472282409668 C 45.70199966430664 61.6472282409668 58.11838531494141 51.10551071166992 61.05988311767578 36.84239959716797 C 61.42812728881836 35.06232833862305 61.6472282409668 32.96855545043945 61.6472282409668 30.82361221313477 C 61.6472282409668 13.80021190643311 47.84693908691406 -2.072579491141369e-06 30.82361221313477 -2.072579491141369e-06 C 13.80021190643311 -2.072579491141369e-06 -2.072579491141369e-06 13.80021190643311 -2.072579491141369e-06 30.82361221313477 C -2.072579491141369e-06 47.84693908691406 13.80021190643311 61.6472282409668 30.82361221313477 61.6472282409668 M 30.82361221313477 67.64722442626953 C 10.51899814605713 67.64722442626953 -6.000001907348633 51.12822723388672 -6.000001907348633 30.82361221313477 C -6.000001907348633 10.51899814605713 10.51899814605713 -6.000001907348633 30.82361221313477 -6.000001907348633 C 51.12822723388672 -6.000001907348633 67.64722442626953 10.51899814605713 67.64722442626953 30.82361221313477 C 67.64722442626953 33.30546951293945 67.40111541748047 35.80704116821289 66.93548583984375 38.05788421630859 C 63.3999137878418 55.20159912109375 48.21236801147461 67.64722442626953 30.82361221313477 67.64722442626953 Z" stroke="none" fill="rgba(98,126,234,0.5)"/>
          </g>
          <path id="Path_113088" data-name="Path 113088" d="M113.424,27.5V44.588l14.443,6.454Z" transform="translate(-72.912 -11.065)" fill="rgba(255,255,255,0.6)"/>
          <path id="Path_113089" data-name="Path 113089" d="M76.32,27.5,61.875,51.041,76.32,44.588Z" transform="translate(-35.807 -11.065)" fill="#fff"/>
          <path id="Path_113090" data-name="Path 113090" d="M113.424,129.5v11.611l14.452-19.995Z" transform="translate(-72.912 -78.445)" fill="rgba(255,255,255,0.6)"/>
          <path id="Path_113091" data-name="Path 113091" d="M76.32,141.106V129.493l-14.445-8.382Z" transform="translate(-35.807 -78.445)" fill="#fff"/>
          <path id="Path_113092" data-name="Path 113092" d="M113.424,103.331l14.443-8.386L113.424,88.5Z" transform="translate(-72.912 -54.968)" fill="rgba(255,255,255,0.2)"/>
          <path id="Path_113093" data-name="Path 113093" d="M61.875,94.945l14.445,8.386V88.5Z" transform="translate(-35.807 -54.968)" fill="rgba(255,255,255,0.6)"/>
        </g>
      </g>
      <path id="Path_112991-11" data-name="Path 112991" d="M2.1.934a5.916,5.916,0,0,0-4.507,2.03,10.359,10.359,0,0,0-2.35,4.983L-28.065,137.116a6.849,6.849,0,0,0,6.84,6.76h129.26a5.858,5.858,0,0,0,4.468-1.969,10.72,10.72,0,0,0,2.39-5.051L138.2,7.694a6.849,6.849,0,0,0-6.84-6.76H2.1M2.1,0h129.26a7.775,7.775,0,0,1,7.775,7.775l-23.325,129.26c-.912,4.311-3.481,7.775-7.775,7.775H-21.225A7.775,7.775,0,0,1-29,137.035L-5.675,7.775C-4.87,3.629-2.194,0,2.1,0Z" transform="translate(29 0)" fill="url(#linear-gradient-7)"/>
    </g>
    <g id="Group_174383" data-name="Group 174383" transform="translate(1029.534 530.558)">
      <g id="Group_173819-2" data-name="Group 173819" transform="translate(0 0.873)">
        <path id="Path_112991-12" data-name="Path 112991" d="M2.1,0h129.26a7.775,7.775,0,0,1,7.775,7.775L115.81,137.035c-.912,4.311-3.481,7.775-7.775,7.775H-21.225A7.775,7.775,0,0,1-29,137.035L-5.675,7.775C-4.87,3.629-2.194,0,2.1,0Z" transform="translate(29 0)" fill="rgba(9,27,49,0.6)"/>
        <g id="Mask_Group_171720-6" data-name="Mask Group 171720" transform="translate(0.091)" opacity="0.3" clip-path="url(#clip-path)">
          <path id="Path_113082-2" data-name="Path 113082" d="M34.665,0A34.665,34.665,0,1,1,0,34.665,34.665,34.665,0,0,1,34.665,0Z" transform="translate(115.572 -14.333)" fill="#d85a96"/>
          <circle id="Ellipse_9832-6" data-name="Ellipse 9832" cx="39.802" cy="39.802" r="39.802" transform="translate(-13.274 80.672)" fill="#d85a96"/>
        </g>
      </g>
      <path id="Path_112991-13" data-name="Path 112991" d="M2.1.934a5.916,5.916,0,0,0-4.507,2.03,10.359,10.359,0,0,0-2.35,4.983L-28.065,137.116a6.849,6.849,0,0,0,6.84,6.76h129.26a5.858,5.858,0,0,0,4.468-1.969,10.72,10.72,0,0,0,2.39-5.051L138.2,7.694a6.849,6.849,0,0,0-6.84-6.76H2.1M2.1,0h129.26a7.775,7.775,0,0,1,7.775,7.775l-23.325,129.26c-.912,4.311-3.481,7.775-7.775,7.775H-21.225A7.775,7.775,0,0,1-29,137.035L-5.675,7.775C-4.87,3.629-2.194,0,2.1,0Z" transform="translate(29 0)" fill="url(#linear-gradient-8)"/>
      <g id="Mask_Group_174387" data-name="Mask Group 174387" transform="translate(46.263 34.555)" clip-path="url(#clip-path-13)">
        <g id="Path_113094" data-name="Path 113094" transform="translate(6.984 6.984)" fill="#ff007a">
          <path d="M30.867,61.735A30.871,30.871,0,0,0,37.389.69,30.447,30.447,0,0,0,30.867,0a30.867,30.867,0,0,0,0,61.735Z" stroke="none"/>
          <path d="M 30.86725807189941 61.73451614379883 C 47.91468811035156 61.73451614379883 61.73451614379883 47.91468811035156 61.73451614379883 30.86725807189941 C 61.73451614379883 16.13821601867676 51.41805648803711 3.81867241859436 37.3894157409668 0.69035804271698 C 35.4444580078125 0.2556152045726776 33.18569946289062 9.290422440244583e-07 30.86725807189941 9.290422440244583e-07 C 13.81974411010742 9.290422440244583e-07 9.290422440244583e-07 13.81974411010742 9.290422440244583e-07 30.86725807189941 C 9.290422440244583e-07 47.91468811035156 13.81974411010742 61.73451614379883 30.86725807189941 61.73451614379883 M 30.86725807189941 67.73451232910156 C 10.53858661651611 67.73451232910156 -5.999999046325684 51.19593048095703 -5.999999046325684 30.86725807189941 C -5.999999046325684 10.53858661651611 10.53858661651611 -5.999999046325684 30.86725807189941 -5.999999046325684 C 33.54690170288086 -5.999999046325684 36.25481414794922 -5.711313247680664 38.69825744628906 -5.165142059326172 C 55.79315948486328 -1.353070497512817 67.73451232910156 13.46425819396973 67.73451232910156 30.86725807189941 C 67.73451232910156 51.19593048095703 51.19593048095703 67.73451232910156 30.86725807189941 67.73451232910156 Z" stroke="none" fill="rgba(255,0,122,0.5)"/>
        </g>
        <path id="Path_113095" data-name="Path 113095" d="M83.079,39.236c-.55-.085-.573-.1-.314-.135a8.566,8.566,0,0,1,2.477.22,10.712,10.712,0,0,1,5.433,3.637l.486.54.695-.11a14.683,14.683,0,0,1,8.411,1.055,10.7,10.7,0,0,1,1.9,1.111,2.806,2.806,0,0,1,.176.739,4.623,4.623,0,0,1-.282,2.875.751.751,0,0,0-.079.83.8.8,0,0,0,.718.455c.621,0,1.289-1,1.6-2.4l.123-.554.243.276a10.691,10.691,0,0,1,2.562,5.041l.048.384-.226-.347a4.3,4.3,0,0,0-1.269-1.337c-.9-.592-1.842-.793-4.35-.926a17.672,17.672,0,0,1-4.817-.727c-2.163-.7-3.253-1.644-5.822-5.014a24.432,24.432,0,0,0-2.547-2.99A9.123,9.123,0,0,0,83.079,39.236Z" transform="translate(-52.442 -21.127)" fill="#fff"/>
        <path id="Path_113096" data-name="Path 113096" d="M102.332,44.627a6.1,6.1,0,0,1,.467-2.269,2.457,2.457,0,0,1,.226-.436,1.507,1.507,0,0,1-.106.394,5.151,5.151,0,0,0-.095,2.321c.173,1.185.274,1.354,1.524,2.633.588.6,1.271,1.356,1.518,1.682l.449.59-.449-.422a19.131,19.131,0,0,0-2.1-1.667c-.187-.1-.216-.095-.332.019s-.129.266-.143,1.021a5.676,5.676,0,0,1-.571,2.682c-.208.405-.241.32-.052-.141a3.691,3.691,0,0,0,.154-1.63c0-2.284-.272-2.832-1.864-3.774q-.718-.417-1.474-.764a5.639,5.639,0,0,1-.722-.351,15.273,15.273,0,0,1,2.219.648c.93.357,1.082.4,1.2.359C102.258,45.493,102.3,45.273,102.332,44.627ZM83.8,48.533a9.312,9.312,0,0,1-1.659-5.66l.046-.546.255.046A6.337,6.337,0,0,1,84.128,43c1.057.642,1.516,1.489,1.981,3.662.137.637.316,1.356.4,1.6a10.7,10.7,0,0,0,1.042,1.9c.293.428.1.631-.552.573A5.29,5.29,0,0,1,83.8,48.533Zm17.179,11.45c-5.222-2.1-7.061-3.928-7.061-7.007a5.322,5.322,0,0,1,.033-.824,3.828,3.828,0,0,1,.45.332c1.059.849,2.245,1.212,5.527,1.69a23.111,23.111,0,0,1,4.023.843c3.187,1.057,5.159,3.2,5.629,6.123a10.143,10.143,0,0,1-.166,3.279,6.308,6.308,0,0,1-.849,1.9c-.039.012-.077-.137-.089-.343a4.234,4.234,0,0,0-1.54-2.965c-1.059-.909-2.481-1.634-5.959-3.033Zm-3.665.872a9.275,9.275,0,0,0-.253-1.1l-.135-.4.249.278a4.447,4.447,0,0,1,.841,1.532,3.3,3.3,0,0,1,.193,1.461,3.258,3.258,0,0,1-.183,1.416,4.475,4.475,0,0,1-1.1,1.752,6.278,6.278,0,0,1-3.951,1.732c-.309.039-1.2.1-1.993.145a15.53,15.53,0,0,0-4.468.729.939.939,0,0,1-.336.081,6.145,6.145,0,0,1,1.414-.843,13.559,13.559,0,0,1,3.936-1.04c1.026-.172,2.087-.378,2.355-.461a4.508,4.508,0,0,0,3.43-5.28Z" transform="translate(-52.092 -23.175)" fill="#fff"/>
        <path id="Path_113097" data-name="Path 113097" d="M93.024,112.919a6.048,6.048,0,0,1-.473-4.275c.04-.143.106-.26.145-.26a1.406,1.406,0,0,1,.365.2c.32.216.961.579,2.668,1.509a13.28,13.28,0,0,1,4.175,3.091,6.733,6.733,0,0,1,1.387,3.177,10.848,10.848,0,0,1-.131,3.125,7.763,7.763,0,0,1-3.8,5.047,4.943,4.943,0,0,1-.556.276,2.007,2.007,0,0,1,.226-.573,5.162,5.162,0,0,0,.228-4.082,17.307,17.307,0,0,0-2.116-3.793A25.709,25.709,0,0,1,93.024,112.919ZM73.41,120.965a14.141,14.141,0,0,1,6.546-3.154,10.212,10.212,0,0,1,3.4.131,5.834,5.834,0,0,1,3.316,2.124,7.664,7.664,0,0,1,1.2,3.573c.116.718.237,1.437.274,1.6a3.533,3.533,0,0,0,1.148,2.074,3.966,3.966,0,0,0,3.623.1,1.909,1.909,0,0,1,.455-.143,4.121,4.121,0,0,1-1.142.766,3.888,3.888,0,0,1-1.9.459,3.786,3.786,0,0,1-3.212-1.968,15.8,15.8,0,0,1-.868-1.731c-.93-2.122-1.389-2.77-2.469-3.478a3.189,3.189,0,0,0-3.069-.28,1.988,1.988,0,0,0-.675,3.093,2.655,2.655,0,0,0,1.5.783,1.6,1.6,0,0,0,1.811-1.6,1.251,1.251,0,0,0-.864-1.283,1.147,1.147,0,0,0-1.746.856.712.712,0,0,0,.488.7c.218.1.222.106.044.069a.968.968,0,0,1-.332-1.713,1.9,1.9,0,0,1,2.823.6,2.618,2.618,0,0,1,.054,1.79,2.468,2.468,0,0,1-2.99,1.422,4.148,4.148,0,0,1-2.288-1.553,7.059,7.059,0,0,0-5.193-2.67l-.507-.079.579-.488Z" transform="translate(-45.412 -70.986)" fill="#fff"/>
        <path id="Path_113098" data-name="Path 113098" d="M42.6,22.218l.185.226q10.73,13.138,11.085,13.628c.386.536.241,1.017-.422,1.395a4.017,4.017,0,0,1-1.507.422,1.937,1.937,0,0,1-1.267-.54c-.249-.237-1.254-1.738-3.575-5.34q-1.63-2.553-3.3-5.08c-.095-.089-.093-.087,3.121,5.664a49.962,49.962,0,0,1,2.7,5.058c0,.347-.1.529-.525,1.007A5.835,5.835,0,0,0,47.827,42.2c-.259,2.078-.984,3.544-3,6.054a12.149,12.149,0,0,0-1.669,2.332,4.3,4.3,0,0,0-.519,2.1,6.536,6.536,0,0,0,.347,2.591,9.269,9.269,0,0,0,1.254,2.485,5.781,5.781,0,0,1,.967,1.933c0,.22.042.22.994.006a10.3,10.3,0,0,0,5.161-2.526,2.388,2.388,0,0,0,.8-2,1.965,1.965,0,0,0-.185-1.1,4.813,4.813,0,0,0-1.846-1.794c-1.422-.972-2.028-1.756-2.2-2.83-.139-.882.021-1.5.808-3.152a9.565,9.565,0,0,0,1.152-4.15c.087-1.111.208-1.549.529-1.9a1.984,1.984,0,0,1,1.457-.6,4.952,4.952,0,0,0,2.9-1.177,2.523,2.523,0,0,0,.9-1.92l.031-.617-.341-.4q-.735-.857-12.162-13.42l-.2-.222-.409.318Zm3.307,31.6a1.092,1.092,0,0,0-.336-1.439c-.44-.293-1.125-.154-1.125.228,0,.116.064.2.208.276.245.125.262.268.071.556s-.179.552.044.727a.769.769,0,0,0,1.138-.347ZM56.561,39.978a2.37,2.37,0,0,0-1.433,1.563,2.223,2.223,0,0,0,.123,1.408c.28.374.552.473,1.285.467,1.435-.01,2.682-.625,2.828-1.395a2.057,2.057,0,0,0-1.185-1.891A2.814,2.814,0,0,0,56.561,39.978Zm1.678,1.312a.582.582,0,0,0-.251-.884c-.718-.438-1.8-.077-1.8.6,0,.336.565.7,1.082.7A1.4,1.4,0,0,0,58.239,41.29Z" transform="translate(-23.66 -8.772)" fill="#fff" fill-rule="evenodd"/>
      </g>
    </g>
  </g>
</svg>
